# xmcd CD database file
#
# Track frame offsets:
#	150
#	16336
#	33709
#	52500
#	72298
#	86517
#	107479
#	124124
#	140087
#	155982
#	172581
#	185255
#	199658
#	214216
#	229277
#	242848
#	256934
#	274427
#	289317
#	308539
#	323578
#	342782
#
# Disc length: 4748 seconds
#
# Revision: 0
# Processed by: cddbd v1.5.2PL0 Copyright (c) Steve Scherf et al.
# Submitted via: CDex 1.51
#
DISCID=3b128a16
DTITLE=Bande A Basile - Double D'or
DYEAR=2012
DGENRE=Ambiance
TTITLE0=La Chenille
TTITLE1=Chantez Français, Dansez Français
TTITLE2=Pop Révolution Française (Version Inédite)
TTITLE3=Les Chansons Françaises
TTITLE4=On Va Faire La Java
TTITLE5=La Danse Des Kanards
TTITLE6=La Bamboula
TTITLE7=Dirladirladada
TTITLE8=A La Queuleuleu
TTITLE9=Qu'est-Ce Qui M'attend À La Rentrée
TTITLE10=Tata Yoyo
TTITLE11=Il Est Vraiment Phénoménal
TTITLE12=Ce Soir C'est La FêTe
TTITLE13=Quand Est-Ce Qu'on Passe La Deuxième Couche ?
TTITLE14=Les Cactus
TTITLE15=Na Na Na Hey Hey
TTITLE16=La Coladeira
TTITLE17=Ho Les Filles
TTITLE18=Big Bisous
TTITLE19=L'europe En FêTe
TTITLE20=Déclartation D'amour À La Terre (Inédit)
TTITLE21=Les Chevaliers Mc (Inédit)
EXTD=YEAR: 2012
EXTT0=
EXTT1=
EXTT2=
EXTT3=
EXTT4=
EXTT5=
EXTT6=
EXTT7=
EXTT8=
EXTT9=
EXTT10=
EXTT11=
EXTT12=
EXTT13=
EXTT14=
EXTT15=
EXTT16=
EXTT17=
EXTT18=
EXTT19=
EXTT20=
EXTT21=
PLAYORDER=
